<svg xmlns="http://www.w3.org/2000/svg" viewBox="0 0 115 134"><defs><style>.a{fill:#d1ede7;}.b{fill:#abddd4;}.c{fill:#53f4a0;}.d{fill:#ffdf4a;}.e{fill:#1a94af;}.f{fill:#097789;}.g{fill:#f0fffc;}.h{fill:#ff5656;}.i{fill:#f72d2d;}.j{fill:#ffbd48;}.k{fill:#3ad391;}</style></defs><g transform="translate(-78 -106)"><g transform="translate(78 106)"><path class="a" d="M33.789,124.709v22.274A3.018,3.018,0,0,1,30.771,150H19.685a3.018,3.018,0,0,1-3.018-3.018V124.709Zm0,0" transform="translate(0 -16)"/><path class="b" d="M16.667,124.709H33.789v10.554H16.667Zm0,0" transform="translate(0 -16)"/><path class="c" d="M121.145,112.007H47.49V33.08h73.655a3.019,3.019,0,0,1,3.019,3.018v72.891a3.019,3.019,0,0,1-3.019,3.018Zm0,0" transform="translate(-9.164 -7.447)"/><path class="d" d="M121.145,112.007H47.49V86.569h76.674v22.42a3.019,3.019,0,0,1-3.019,3.018Zm0,0" transform="translate(-9.164 -11.12)"/><path class="e" d="M40.065,115.641H10.394C4.653,115.641,0,111.553,0,106.51V9.13C0,4.088,4.653,0,10.394,0H40.065c5.74,0,10.394,4.088,10.394,9.13v97.38C50.458,111.553,45.805,115.641,40.065,115.641Zm0,0" transform="translate(0 0)"/><path class="f" d="M50.458,9.131V106.51c0,5.043-4.654,9.13-10.395,9.13H33.87c5.74,0,10.391-4.088,10.391-9.13V9.131C44.261,4.089,39.61,0,33.87,0h6.194C45.8,0,50.458,4.089,50.458,9.131Zm0,0" transform="translate(-2.885)"/><path class="g" d="M111.559,59.944a10.321,10.321,0,1,1-10.321-10.321A10.322,10.322,0,0,1,111.559,59.944Zm0,0" transform="translate(-9.164 -6.138)"/><path class="f" d="M111.559,97.887H60.48a2.263,2.263,0,1,1,0-4.526h51.08a2.263,2.263,0,1,1,0,4.526Zm0,0" transform="translate(-9.164 -10.268)"/><path class="f" d="M74.3,104.728H60.48a2.264,2.264,0,1,1,0-4.527H74.3a2.264,2.264,0,1,1,0,4.527Zm0,0" transform="translate(-5.042 -11.021)"/><g transform="translate(53.126 37.749)"><path class="g" d="M65.1,57.021H60.48a2.264,2.264,0,0,1,0-4.527H65.1a2.264,2.264,0,0,1,0,4.527Zm0,0" transform="translate(-58.216 -43.631)"/><path class="g" d="M75.307,67.907H60.48a2.263,2.263,0,1,1,0-4.526H75.307a2.263,2.263,0,1,1,0,4.526Zm0,0" transform="translate(-58.216 -43.631)"/><path class="g" d="M75.307,74.944H60.48a2.264,2.264,0,0,1,0-4.527H75.307a2.264,2.264,0,0,1,0,4.527Zm0,0" transform="translate(-58.216 -43.631)"/><path class="g" d="M60.492,48.158a2.275,2.275,0,0,1-2.276-2.264,2.252,2.252,0,0,1,2.25-2.264h.026a2.264,2.264,0,1,1,0,4.527Zm0,0" transform="translate(-58.216 -43.631)"/></g><path class="h" d="M38.777,28.439A13.549,13.549,0,1,1,25.228,14.89,13.548,13.548,0,0,1,38.777,28.439Zm0,0"/><path class="i" d="M38.777,28.44a13.552,13.552,0,0,1-25.144,7.018A13.553,13.553,0,0,0,32.246,16.845a13.543,13.543,0,0,1,6.531,11.6Zm0,0"/><path class="f" d="M25.228,44.251A15.812,15.812,0,1,1,41.041,28.439,15.83,15.83,0,0,1,25.228,44.251Zm0-27.1A11.285,11.285,0,1,0,36.514,28.439,11.3,11.3,0,0,0,25.228,17.154Zm0,0"/><path class="d" d="M38.777,67.241A13.549,13.549,0,1,1,25.228,53.692,13.549,13.549,0,0,1,38.777,67.241Zm0,0" transform="translate(0 -6.99)"/><path class="j" d="M38.777,67.241a13.552,13.552,0,0,1-25.144,7.02A13.554,13.554,0,0,0,32.249,55.65a13.544,13.544,0,0,1,6.528,11.591Zm0,0" transform="translate(0 -7.131)"/><path class="f" d="M25.228,83.053A15.812,15.812,0,1,1,41.041,67.241,15.83,15.83,0,0,1,25.228,83.053Zm0-27.1A11.285,11.285,0,1,0,36.514,67.241,11.3,11.3,0,0,0,25.228,55.956Zm0,0" transform="translate(0 -6.951)"/><path class="c" d="M38.777,106.044A13.549,13.549,0,1,1,25.228,92.5,13.548,13.548,0,0,1,38.777,106.044Zm0,0" transform="translate(0 -12.041)"/><path class="k" d="M38.777,106.044a13.552,13.552,0,0,1-25.144,7.016A13.549,13.549,0,0,0,32.246,94.455a13.533,13.533,0,0,1,6.531,11.589Zm0,0" transform="translate(0 -12.104)"/><path class="f" d="M25.228,121.857a15.812,15.812,0,1,1,15.812-15.812A15.83,15.83,0,0,1,25.228,121.857Zm0-27.1a11.285,11.285,0,1,0,11.285,11.285A11.3,11.3,0,0,0,25.228,94.759Zm0,0" transform="translate(0 -12.196)"/><path class="a" d="M11.692,88.832a2.263,2.263,0,1,1-.025-4.526h.025a2.263,2.263,0,1,1,0,4.526Zm0,0" transform="translate(0 -9.272)"/><path class="a" d="M11.692,49.868a2.264,2.264,0,0,1-.025-4.527h.025a2.264,2.264,0,1,1,0,4.527Zm0,0" transform="translate(0 -4.987)"/></g></g></svg>